<svg xmlns="http://www.w3.org/2000/svg" viewBox="0 0 512 512" role="img" aria-label="Stylized gray eighth notes fallback image">
  <title>Stylized Gray Eighth Notes</title>
  <desc>A gray-gradient eighth note icon with a matching gray gradient background, slightly smaller for balance.</desc>
  <defs>
    <!-- Background gradient (gray tones) -->
    <linearGradient id="bgGradient" x1="0" y1="0" x2="1" y2="1">
      <stop offset="0%" stop-color="#f3f4f6"/>
      <stop offset="100%" stop-color="#9ca3af"/>
    </linearGradient>

```
<!-- Note gradient (darker gray tones) -->
<linearGradient id="noteGradient" x1="0" y1="0" x2="1" y2="1">
  <stop offset="0%" stop-color="#d1d5db"/>
  <stop offset="100%" stop-color="#374151"/>
</linearGradient>

<!-- Drop shadow -->
<filter id="shadow" x="-50%" y="-50%" width="200%" height="200%">
  <feDropShadow dx="0" dy="6" stdDeviation="8" flood-color="#000" flood-opacity="0.2"/>
</filter>
```

  </defs>

  <!-- Background -->

  <rect width="512" height="512" rx="48" fill="url(#bgGradient)"/>

  <!-- Slightly smaller centered note (90%) -->

  <g transform="translate(25,35) scale(0.85)" filter="url(#shadow)">
    <path d="M473.759,345.032c0-33.671,0-309.782,0-308.7c0-11.316-5.272-21.985-14.261-28.86
             c-8.989-6.874-20.668-9.167-31.589-6.202L193.874,64.804
             c-28.27,7.674-47.895,33.336-47.895,62.63c0,5.912,0,179.704,0,261.432
             c-11.14-0.276-22.986,1.023-34.987,4.099c-47.736,12.232-79.844,47.868-71.714,79.598
             c8.129,31.73,53.419,47.535,101.155,35.304
             c44.874-11.498,75.928-43.678,72.739-73.853V167.414l193.393-52.5v184.97
             c-11.14-0.276-22.986,1.023-34.987,4.099
             c-47.736,12.231-79.844,47.868-71.713,79.598
             c8.13,31.729,53.419,47.535,101.155,35.304
             C445.892,407.385,476.947,375.207,473.759,345.032z"
          fill="url(#noteGradient)"/>
  </g>
</svg>
